<?xml version="1.0" standalone="no"?>
<!DOCTYPE svg PUBLIC "-//W3C//DTD SVG 20010904//EN"
 "http://www.w3.org/TR/2001/REC-SVG-20010904/DTD/svg10.dtd">
<svg version="1.0" xmlns="http://www.w3.org/2000/svg"
 width="1048.000000pt" height="1048.000000pt" viewBox="0 0 1048.000000 1048.000000"
 preserveAspectRatio="xMidYMid meet">
<metadata>
Created by potrace 1.14, written by Peter Selinger 2001-2017
</metadata>
<g transform="translate(0.000000,1048.000000) scale(0.100000,-0.100000)"
fill="#000000" stroke="none">
<path d="M31 9728 c17 -29 33 -61 36 -70 3 -10 9 -18 13 -18 4 0 14 -15 21
-32 7 -18 26 -52 41 -74 15 -23 28 -46 28 -52 0 -5 7 -15 15 -22 8 -7 12 -16
9 -21 -3 -5 0 -9 5 -9 6 0 11 -6 11 -14 0 -8 3 -16 8 -18 7 -3 43 -66 66 -115
6 -13 14 -23 19 -23 4 0 7 -4 7 -9 0 -5 19 -42 43 -83 24 -40 46 -80 50 -88 4
-8 21 -37 38 -65 16 -27 33 -58 36 -67 3 -10 9 -18 14 -18 5 0 9 -6 10 -12 0
-7 14 -33 29 -58 16 -25 38 -63 50 -85 11 -22 31 -58 45 -80 14 -22 30 -51 37
-65 7 -14 15 -27 19 -30 3 -3 19 -30 36 -60 16 -30 41 -73 53 -95 13 -22 37
-65 54 -95 16 -30 33 -57 36 -60 4 -3 13 -20 21 -37 8 -18 17 -33 21 -33 5 0
8 -4 8 -10 0 -5 13 -31 29 -58 16 -27 44 -76 62 -108 17 -32 38 -65 46 -72 7
-7 13 -19 13 -25 0 -7 15 -35 34 -62 18 -28 36 -60 40 -72 4 -13 12 -23 18
-23 6 0 9 -3 5 -6 -3 -3 10 -30 29 -59 19 -30 34 -58 34 -64 0 -5 6 -16 13
-23 7 -7 26 -38 42 -68 16 -30 34 -62 41 -70 6 -8 27 -44 45 -80 19 -36 37
-67 40 -70 10 -9 89 -152 89 -161 0 -5 5 -9 10 -9 6 0 10 -4 10 -10 0 -5 18
-39 40 -75 22 -36 40 -67 40 -70 0 -3 18 -34 40 -70 22 -36 40 -70 40 -75 0
-6 5 -10 11 -10 5 0 7 -4 4 -10 -3 -5 -1 -10 4 -10 6 0 11 -4 11 -9 0 -4 30
-60 66 -122 37 -63 78 -134 92 -159 14 -25 36 -62 49 -82 12 -21 23 -40 23
-43 0 -3 11 -22 24 -43 19 -31 169 -288 238 -409 38 -69 56 -99 82 -143 15
-25 29 -53 33 -62 3 -10 9 -18 14 -18 5 0 9 -4 9 -9 0 -5 23 -49 51 -98 29
-48 63 -108 77 -133 13 -25 28 -49 32 -55 4 -5 19 -30 32 -55 14 -25 76 -133
138 -240 113 -195 133 -230 169 -294 11 -19 31 -52 44 -73 13 -21 26 -45 30
-53 4 -8 18 -33 32 -55 14 -22 28 -46 32 -54 3 -8 35 -63 70 -123 35 -60 63
-112 63 -115 0 -4 6 -14 14 -22 8 -9 26 -38 41 -66 14 -27 37 -68 50 -90 14
-22 45 -76 70 -120 25 -44 54 -93 64 -110 10 -16 29 -51 43 -76 46 -83 53 -94
58 -99 3 -3 11 -16 18 -30 7 -14 23 -44 37 -67 14 -24 36 -62 50 -85 14 -24
30 -54 37 -68 7 -14 15 -27 18 -30 3 -3 11 -16 18 -29 36 -63 51 -89 76 -131
15 -25 29 -53 33 -62 3 -10 9 -18 14 -18 5 0 9 -4 9 -9 0 -8 44 -88 91 -166
10 -16 30 -52 44 -80 15 -27 32 -57 39 -65 6 -8 16 -24 22 -35 14 -25 57 -104
75 -136 8 -13 16 -26 19 -29 3 -3 11 -16 18 -30 25 -48 57 -105 95 -166 20
-34 37 -67 37 -73 0 -6 4 -11 9 -11 5 0 11 -8 15 -17 3 -10 10 -25 16 -33 10
-15 240 -414 288 -500 13 -25 28 -49 32 -55 4 -5 19 -30 32 -55 14 -25 57
-100 97 -167 39 -68 71 -126 71 -131 0 -4 5 -13 12 -20 13 -13 68 -105 96
-162 9 -19 20 -37 23 -40 3 -3 12 -17 20 -32 8 -15 43 -77 79 -139 36 -62 75
-130 88 -153 29 -50 95 -164 134 -229 15 -26 28 -53 28 -59 0 -6 9 -2 20 10
11 12 20 25 20 30 0 7 84 156 120 212 6 8 20 35 33 60 12 25 25 47 28 50 4 3
16 22 28 43 51 90 70 123 176 307 62 107 122 211 133 230 31 55 277 481 300
520 11 19 33 58 48 85 14 28 30 52 33 55 4 3 16 23 28 45 39 76 58 110 63 115
3 3 28 43 54 90 27 47 57 100 67 118 11 17 29 49 40 70 70 124 114 198 118
202 4 3 19 31 35 63 16 31 33 57 38 57 4 0 8 6 8 13 0 6 32 65 70 130 39 66
70 123 70 127 0 5 6 15 13 22 7 7 24 33 37 58 13 25 39 68 57 97 18 28 33 55
33 60 0 5 11 24 23 43 13 19 35 55 49 80 41 73 70 123 89 155 11 17 22 37 26
45 4 8 26 48 50 88 24 40 43 77 43 82 0 6 4 10 8 10 4 0 13 12 20 28 7 15 23
45 36 67 75 128 132 225 154 265 14 25 33 59 43 75 10 17 28 48 40 70 12 22
27 47 34 55 8 8 13 17 12 20 0 3 6 16 15 30 44 71 118 203 118 211 0 5 4 9 9
9 5 0 11 6 13 13 2 7 50 95 108 195 58 100 110 190 115 201 6 10 16 25 22 32
6 8 12 17 12 22 0 4 25 49 55 100 30 50 60 104 67 120 7 15 16 27 21 27 4 0 8
5 8 10 0 6 24 51 53 100 28 50 59 103 67 118 8 15 30 50 48 80 17 29 32 57 32
62 0 6 5 10 10 10 6 0 10 5 10 12 0 6 24 52 53 102 122 207 152 260 149 264
-2 3 0 8 5 11 11 7 61 92 126 211 16 30 36 62 43 71 8 8 14 18 14 21 0 4 27
52 60 108 33 56 60 103 60 106 0 2 16 28 35 58 19 30 35 58 35 61 0 4 9 19 20
35 11 15 17 30 13 34 -3 3 -1 6 5 6 7 0 18 15 26 33 8 17 29 55 45 82 17 28
34 57 38 65 3 8 18 33 31 54 34 54 80 136 95 166 6 14 14 27 18 30 3 3 19 30
35 60 16 30 31 57 34 60 3 3 11 16 18 29 8 13 23 40 34 60 12 20 32 56 46 81
14 25 33 57 43 72 11 14 19 29 19 33 0 4 9 20 21 36 11 16 17 29 12 29 -4 0
-3 4 3 8 6 4 26 34 45 67 18 33 42 74 52 90 9 17 20 38 23 48 4 9 10 17 15 17
5 0 9 5 9 11 0 5 26 54 57 107 32 53 57 100 55 105 -1 4 2 7 8 7 5 0 10 6 10
14 0 8 3 16 8 18 6 3 20 27 71 122 9 17 20 35 24 40 19 26 117 199 117 207 0
5 4 9 8 9 4 0 13 12 19 28 7 15 25 50 42 77 52 86 91 158 91 167 0 4 4 8 9 8
5 0 11 8 14 18 3 9 20 40 37 67 16 28 33 58 36 68 4 9 10 17 15 17 5 0 9 5 9
11 0 9 28 59 97 174 6 11 24 44 38 73 15 28 31 52 37 52 6 0 9 3 6 6 -4 3 14
39 38 80 l44 74 -2017 -2 -2017 -3 -169 -290 c-93 -159 -171 -298 -174 -307
-3 -10 -9 -18 -14 -18 -5 0 -9 -4 -9 -10 0 -5 -35 -69 -78 -142 -43 -74 -81
-140 -85 -148 -4 -8 -17 -32 -30 -52 -12 -21 -35 -61 -51 -90 -15 -29 -34 -60
-42 -69 -8 -8 -14 -18 -14 -21 0 -4 -20 -41 -45 -82 -25 -42 -45 -79 -45 -81
0 -3 -15 -28 -33 -57 -19 -29 -37 -60 -40 -68 -4 -8 -18 -33 -31 -55 -12 -22
-40 -69 -61 -105 -21 -36 -45 -78 -54 -93 -9 -16 -20 -36 -26 -45 -5 -9 -52
-90 -103 -179 -51 -90 -97 -165 -102 -168 -4 -3 -18 14 -29 38 -38 75 -66 122
-73 125 -5 2 -8 8 -8 13 0 5 -18 38 -40 74 -22 36 -40 68 -40 71 0 3 -8 18
-19 32 -10 15 -31 51 -47 80 -16 29 -38 68 -49 86 -19 32 -55 94 -104 181 -13
22 -38 65 -56 95 -18 30 -44 75 -57 100 -14 25 -58 101 -97 168 -39 68 -71
128 -71 133 0 5 -4 9 -9 9 -5 0 -11 8 -14 18 -6 17 -32 63 -88 155 -16 26 -29
51 -29 56 0 5 -3 11 -7 13 -5 2 -16 19 -26 38 -30 57 -53 98 -79 138 -13 20
-30 51 -38 67 -8 17 -25 44 -37 61 -13 17 -23 34 -23 37 0 3 -31 60 -70 126
-39 66 -70 122 -70 125 0 3 -8 15 -17 26 -17 20 -26 20 -2030 20 l-2013 0 31
-52z"/>
</g>
</svg>
